<svg xmlns="http://www.w3.org/2000/svg" width="32" height="32" viewBox="0 0 32 32">
    <g fill="none" fill-rule="nonzero">
        <circle cx="16" cy="16" r="16" fill="#FFF"/>
        <g fill="#000">
            <path d="M11.723 13H8.277a.27.27 0 0 0-.277.262v10.476a.27.27 0 0 0 .277.262h3.446a.27.27 0 0 0 .277-.262V13.262a.27.27 0 0 0-.277-.262zM10 7.5c-1.102 0-2 .897-2 2s.898 2 2 2c1.103 0 2-.897 2-2s-.897-2-2-2zM20.707 12c-1.349 0-2.346.6-2.95 1.282v-.725c0-.155-.122-.28-.27-.28H14.27c-.15 0-.27.125-.27.28V23.72c0 .154.12.279.27.279h3.351c.15 0 .27-.125.27-.28v-5.523c0-1.861.489-2.586 1.743-2.586 1.365 0 1.474 1.162 1.474 2.682v5.428c0 .154.12.279.27.279h3.352c.15 0 .27-.125.27-.28v-6.123C25 14.83 24.49 12 20.707 12z"/>
        </g>
    </g>
</svg>
